<svg xmlns="http://www.w3.org/2000/svg" viewBox="0 0 105 105" width="105" height="105" preserveAspectRatio="xMidYMid meet" style="width: 100%; height: 100%; transform: translate3d(0px, 0px, 0px);"><defs><clipPath id="__lottie_element_36"><rect width="105" height="105" x="0" y="0"/></clipPath></defs><g clip-path="url(#__lottie_element_36)"><g transform="matrix(1,0,0,1,0,0)" opacity="1" style="display: block;"><g opacity="1" transform="matrix(1,0,0,1,52.45199966430664,52.45199966430664)"><path fill="rgb(253,211,57)" fill-opacity="1" d=" M0,-52.452999114990234 C28.9689998626709,-52.452999114990234 52.452999114990234,-28.9689998626709 52.452999114990234,0 C52.452999114990234,28.9689998626709 28.9689998626709,52.452999114990234 0,52.452999114990234 C-28.9689998626709,52.452999114990234 -52.452999114990234,28.9689998626709 -52.452999114990234,0 C-52.452999114990234,-28.9689998626709 -28.9689998626709,-52.452999114990234 0,-52.452999114990234z"/></g></g><g transform="matrix(1,0,0,1,0,0)" opacity="1" style="display: block;"><g opacity="1" transform="matrix(1,0,0,1,52.76900100708008,50)"><path stroke-linecap="round" stroke-linejoin="round" fill-opacity="0" stroke="rgb(0,0,0)" stroke-opacity="1" stroke-width="2" d=" M-24.21500015258789,18.586999893188477 C-26.304000854492188,18.586999893188477 -27.996999740600586,16.92300033569336 -27.996999740600586,14.869999885559082 C-27.996999740600586,14.869999885559082 -27.996999740600586,-14.869999885559082 -27.996999740600586,-14.869999885559082 C-27.996999740600586,-16.922000885009766 -26.304000854492188,-18.586999893188477 -24.21500015258789,-18.586999893188477 C-24.21500015258789,-18.586999893188477 24.21500015258789,-18.586999893188477 24.21500015258789,-18.586999893188477 C26.304000854492188,-18.586999893188477 27.996999740600586,-16.922000885009766 27.996999740600586,-14.869999885559082 C27.996999740600586,-14.869999885559082 27.996999740600586,14.869999885559082 27.996999740600586,14.869999885559082 C27.996999740600586,16.92300033569336 26.304000854492188,18.586999893188477 24.21500015258789,18.586999893188477 C24.21500015258789,18.586999893188477 -24.21500015258789,18.586999893188477 -24.21500015258789,18.586999893188477z"/></g><g opacity="1" transform="matrix(1,0,0,1,41.07699966430664,37.805999755859375)"><path stroke-linecap="round" stroke-linejoin="round" fill-opacity="0" stroke="rgb(0,0,0)" stroke-opacity="1" stroke-width="1" d=" M-9.944000244140625,3.0199999809265137 C-10.635000228881836,3.0199999809265137 -11.194999694824219,2.5199999809265137 -11.194999694824219,1.9019999504089355 C-11.194999694824219,1.9019999504089355 -11.194999694824219,-1.9019999504089355 -11.194999694824219,-1.9019999504089355 C-11.194999694824219,-2.5199999809265137 -10.635000228881836,-3.0199999809265137 -9.944000244140625,-3.0199999809265137 C-9.944000244140625,-3.0199999809265137 9.944000244140625,-3.0199999809265137 9.944000244140625,-3.0199999809265137 C10.635000228881836,-3.0199999809265137 11.194999694824219,-2.5199999809265137 11.194999694824219,-1.9019999504089355 C11.194999694824219,-1.9019999504089355 11.194999694824219,1.9019999504089355 11.194999694824219,1.9019999504089355 C11.194999694824219,2.5199999809265137 10.635000228881836,3.0199999809265137 9.944000244140625,3.0199999809265137 C9.944000244140625,3.0199999809265137 -9.944000244140625,3.0199999809265137 -9.944000244140625,3.0199999809265137z"/></g><g opacity="1" transform="matrix(1,0,0,1,0,0)"><path stroke-linecap="round" stroke-linejoin="miter" fill-opacity="0" stroke-miterlimit="4" stroke="rgb(0,0,0)" stroke-opacity="1" stroke-width="2" d=" M25.408000946044922,61.518001556396484 C25.408000946044922,61.518001556396484 79.99800109863281,61.518001556396484 79.99800109863281,61.518001556396484"/></g><g opacity="1" transform="matrix(1,0,0,1,0,0)"><path stroke-linecap="round" stroke-linejoin="miter" fill-opacity="0" stroke-miterlimit="4" stroke="rgb(0,0,0)" stroke-opacity="1" stroke-width="1" d=" M50.869998931884766,52.08700180053711 C50.869998931884766,52.08700180053711 75.2969970703125,52.08700180053711 75.2969970703125,52.08700180053711"/></g><g opacity="1" transform="matrix(1,0,0,1,0,0)"><path stroke-linecap="round" stroke-linejoin="miter" fill-opacity="0" stroke-miterlimit="4" stroke="rgb(0,0,0)" stroke-opacity="1" stroke-width="1" d=" M48.91600036621094,48.25400161743164 C48.91600036621094,48.25400161743164 56.62099838256836,48.25400161743164 56.62099838256836,48.25400161743164"/></g><g opacity="1" transform="matrix(1,0,0,1,0,0)"><path stroke-linecap="round" stroke-linejoin="miter" fill-opacity="0" stroke-miterlimit="4" stroke="rgb(0,0,0)" stroke-opacity="1" stroke-width="1" d=" M30.110000610351562,44.47800064086914 C30.110000610351562,44.47800064086914 52.04999923706055,44.47800064086914 52.04999923706055,44.47800064086914"/></g><g opacity="1" transform="matrix(1,0,0,1,0,0)"><path stroke-linecap="round" stroke-linejoin="miter" fill-opacity="0" stroke-miterlimit="4" stroke="rgb(0,0,0)" stroke-opacity="1" stroke-width="1" d=" M50.82099914550781,55.58700180053711 C50.82099914550781,55.58700180053711 62.64099884033203,55.58700180053711 62.64099884033203,55.58700180053711"/></g><g opacity="1" transform="matrix(1,0,0,1,67.26499938964844,40.875)"><path stroke-linecap="round" stroke-linejoin="round" fill-opacity="0" stroke="rgb(0,0,0)" stroke-opacity="1" stroke-width="1" d=" M-7.396999835968018,6.0980000495910645 C-8.07800006866455,6.0980000495910645 -8.628999710083008,5.557000160217285 -8.628999710083008,4.889999866485596 C-8.628999710083008,4.889999866485596 -8.628999710083008,-4.889999866485596 -8.628999710083008,-4.889999866485596 C-8.628999710083008,-5.557000160217285 -8.07800006866455,-6.0980000495910645 -7.396999835968018,-6.0980000495910645 C-7.396999835968018,-6.0980000495910645 7.395999908447266,-6.0980000495910645 7.395999908447266,-6.0980000495910645 C8.07699966430664,-6.0980000495910645 8.628999710083008,-5.557000160217285 8.628999710083008,-4.889999866485596 C8.628999710083008,-4.889999866485596 8.628999710083008,4.889999866485596 8.628999710083008,4.889999866485596 C8.628999710083008,5.557000160217285 8.07699966430664,6.0980000495910645 7.395999908447266,6.0980000495910645 C7.395999908447266,6.0980000495910645 -7.396999835968018,6.0980000495910645 -7.396999835968018,6.0980000495910645z"/></g><g opacity="1" transform="matrix(1,0,0,1,60.99700164794922,43.505001068115234)"><path stroke-linecap="round" stroke-linejoin="miter" fill-opacity="0" stroke-miterlimit="4" stroke="rgb(0,0,0)" stroke-opacity="1" stroke-width="1" d=" M-2.0250000953674316,2.3499999046325684 C-2.0250000953674316,2.3499999046325684 2.0250000953674316,-2.3499999046325684 2.0250000953674316,-2.3499999046325684"/></g><g opacity="1" transform="matrix(1,0,0,1,65.30500030517578,43.505001068115234)"><path stroke-linecap="round" stroke-linejoin="miter" fill-opacity="0" stroke-miterlimit="4" stroke="rgb(0,0,0)" stroke-opacity="1" stroke-width="1" d=" M2.2860000133514404,2.3499999046325684 C2.2860000133514404,2.3499999046325684 -2.2860000133514404,-2.3499999046325684 -2.2860000133514404,-2.3499999046325684"/></g><g opacity="1" transform="matrix(1,0,0,1,71.052001953125,40.56700134277344)"><path stroke-linecap="round" stroke-linejoin="miter" fill-opacity="0" stroke-miterlimit="4" stroke="rgb(0,0,0)" stroke-opacity="1" stroke-width="1" d=" M-3.4609999656677246,5.289000034332275 C-3.4609999656677246,5.289000034332275 3.4609999656677246,-5.289000034332275 3.4609999656677246,-5.289000034332275"/></g><g opacity="1" transform="matrix(1,0,0,1,66.41600036621094,39.32699966430664)"><path stroke-linecap="round" stroke-linejoin="round" fill-opacity="0" stroke="rgb(0,0,0)" stroke-opacity="1" stroke-width="2" d=" M0,0.6150000095367432 C-0.3400000035762787,0.6150000095367432 -0.6150000095367432,0.3400000035762787 -0.6150000095367432,0 C-0.6150000095367432,-0.3400000035762787 -0.3400000035762787,-0.6150000095367432 0,-0.6150000095367432 C0.3400000035762787,-0.6150000095367432 0.6150000095367432,-0.3400000035762787 0.6150000095367432,0 C0.6150000095367432,0.3400000035762787 0.3400000035762787,0.6150000095367432 0,0.6150000095367432z"/></g><g opacity="1" transform="matrix(1,0,0,1,53.1609992980957,72.19599914550781)"><path stroke-linecap="round" stroke-linejoin="round" fill-opacity="0" stroke="rgb(0,0,0)" stroke-opacity="1" stroke-width="2" d=" M-8.920999526977539,7.479000091552734 C-9.435999870300293,7.479000091552734 -9.927000045776367,7.36299991607666 -10.33899974822998,7.142000198364258 C-10.734000205993652,6.931000232696533 -11.052000045776367,6.630000114440918 -11.258000373840332,6.270999908447266 C-11.652000427246094,5.583000183105469 -11.60200023651123,4.763999938964844 -11.118000030517578,4.025000095367432 C-11.118000030517578,4.025000095367432 -7.247000217437744,-2.5139999389648438 -7.247000217437744,-2.5139999389648438 C-7.247000217437744,-2.5139999389648438 6.479000091552734,-2.5139999389648438 6.479000091552734,-2.5139999389648438 C6.479000091552734,-2.5139999389648438 10.350000381469727,4.025000095367432 10.350000381469727,4.025000095367432 C10.833000183105469,4.763999938964844 10.885000228881836,5.583000183105469 10.48900032043457,6.270999908447266 C10.284000396728516,6.630000114440918 9.96500015258789,6.931000232696533 9.569999694824219,7.142000198364258 C9.156999588012695,7.36299991607666 8.668000221252441,7.479000091552734 8.152000427246094,7.479000091552734 C8.152000427246094,7.479000091552734 -8.920999526977539,7.479000091552734 -8.920999526977539,7.479000091552734z"/></g></g><g transform="matrix(1,0,0,1,0,0)" opacity="1" style="display: block;"><g opacity="1" transform="matrix(1,0,0,1,74.18599700927734,67.99299621582031)"><path fill="rgb(253,211,57)" fill-opacity="1" d=" M4.571000099182129,12.973999977111816 C4.571000099182129,12.973999977111816 -4.571000099182129,12.973999977111816 -4.571000099182129,12.973999977111816 C-6.179999828338623,12.973999977111816 -7.488999843597412,11.664999961853027 -7.488999843597412,10.055999755859375 C-7.488999843597412,10.055999755859375 -7.488999843597412,-10.055999755859375 -7.488999843597412,-10.055999755859375 C-7.488999843597412,-11.664999961853027 -6.179999828338623,-12.973999977111816 -4.571000099182129,-12.973999977111816 C-4.571000099182129,-12.973999977111816 4.571000099182129,-12.973999977111816 4.571000099182129,-12.973999977111816 C6.179999828338623,-12.973999977111816 7.488999843597412,-11.664999961853027 7.488999843597412,-10.055999755859375 C7.488999843597412,-10.055999755859375 7.488999843597412,10.055999755859375 7.488999843597412,10.055999755859375 C7.488999843597412,11.664999961853027 6.179999828338623,12.973999977111816 4.571000099182129,12.973999977111816z"/></g></g><g transform="matrix(1,0,0,1,0,0)" opacity="1" style="display: block;"><g opacity="1" transform="matrix(1,0,0,1,74.18599700927734,67.99299621582031)"><path stroke-linecap="round" stroke-linejoin="round" fill-opacity="0" stroke="rgb(0,0,0)" stroke-opacity="1" stroke-width="2" d=" M-4.0289998054504395,12.982000350952148 C-5.936999797821045,12.982000350952148 -7.482999801635742,11.352999687194824 -7.482999801635742,9.342000007629395 C-7.482999801635742,9.342000007629395 -7.482999801635742,-9.342000007629395 -7.482999801635742,-9.342000007629395 C-7.482999801635742,-11.35200023651123 -5.936999797821045,-12.982000350952148 -4.0289998054504395,-12.982000350952148 C-4.0289998054504395,-12.982000350952148 4.0289998054504395,-12.982000350952148 4.0289998054504395,-12.982000350952148 C5.935999870300293,-12.982000350952148 7.482999801635742,-11.35200023651123 7.482999801635742,-9.342000007629395 C7.482999801635742,-9.342000007629395 7.482999801635742,9.342000007629395 7.482999801635742,9.342000007629395 C7.482999801635742,11.352999687194824 5.935999870300293,12.982000350952148 4.0289998054504395,12.982000350952148 C4.0289998054504395,12.982000350952148 -4.0289998054504395,12.982000350952148 -4.0289998054504395,12.982000350952148z"/></g><g opacity="1" transform="matrix(1,0,0,1,74.31700134277344,63.34199905395508)"><path stroke-linecap="round" stroke-linejoin="round" fill-opacity="0" stroke="rgb(0,0,0)" stroke-opacity="1" stroke-width="1" d=" M-3.5329999923706055,3.8970000743865967 C-4.183000087738037,3.8970000743865967 -4.710000038146973,3.4760000705718994 -4.710000038146973,2.9579999446868896 C-4.710000038146973,2.9579999446868896 -4.710000038146973,-2.9570000171661377 -4.710000038146973,-2.9570000171661377 C-4.710000038146973,-3.4760000705718994 -4.183000087738037,-3.8970000743865967 -3.5329999923706055,-3.8970000743865967 C-3.5329999923706055,-3.8970000743865967 3.5329999923706055,-3.8970000743865967 3.5329999923706055,-3.8970000743865967 C4.184000015258789,-3.8970000743865967 4.710999965667725,-3.4760000705718994 4.710999965667725,-2.9570000171661377 C4.710999965667725,-2.9570000171661377 4.710999965667725,2.9579999446868896 4.710999965667725,2.9579999446868896 C4.710999965667725,3.4760000705718994 4.184000015258789,3.8970000743865967 3.5329999923706055,3.8970000743865967 C3.5329999923706055,3.8970000743865967 -3.5329999923706055,3.8970000743865967 -3.5329999923706055,3.8970000743865967z"/></g><g opacity="1" transform="matrix(1,0,0,1,0,0)"><path stroke-linecap="round" stroke-linejoin="miter" fill-opacity="0" stroke-miterlimit="4" stroke="rgb(0,0,0)" stroke-opacity="1" stroke-width="1" d=" M66.80699920654297,77.10399627685547 C66.80699920654297,77.10399627685547 81.69599914550781,77.10399627685547 81.69599914550781,77.10399627685547"/></g><g opacity="1" transform="matrix(1,0,0,1,72.2959976196289,64.79000091552734)"><path stroke-linecap="round" stroke-linejoin="miter" fill-opacity="0" stroke-miterlimit="4" stroke="rgb(0,0,0)" stroke-opacity="1" stroke-width="1" d=" M-1.6039999723434448,2.009000062942505 C-1.6039999723434448,2.009000062942505 1.6039999723434448,-2.009000062942505 1.6039999723434448,-2.009000062942505"/></g><g opacity="1" transform="matrix(1,0,0,1,0,0)"><path stroke-linecap="round" stroke-linejoin="miter" fill-opacity="0" stroke-miterlimit="4" stroke="rgb(0,0,0)" stroke-opacity="1" stroke-width="1" d=" M70.2030029296875,71.71499633789062 C70.2030029296875,71.71499633789062 78.16899871826172,71.71499633789062 78.16899871826172,71.71499633789062"/></g><g opacity="1" transform="matrix(1,0,0,1,75.85199737548828,64.86399841308594)"><path stroke-linecap="round" stroke-linejoin="miter" fill-opacity="0" stroke-miterlimit="4" stroke="rgb(0,0,0)" stroke-opacity="1" stroke-width="1" d=" M1.9040000438690186,2.068000078201294 C1.9040000438690186,2.068000078201294 -1.9040000438690186,-2.069000005722046 -1.9040000438690186,-2.069000005722046"/></g><g opacity="1" transform="matrix(1,0,0,1,76.47100067138672,61.91999816894531)"><path stroke-linecap="round" stroke-linejoin="round" fill-opacity="0" stroke="rgb(0,0,0)" stroke-opacity="1" stroke-width="1" d=" M0,0.2809999883174896 C-0.1550000011920929,0.2809999883174896 -0.2809999883174896,0.1550000011920929 -0.2809999883174896,0 C-0.2809999883174896,-0.15600000321865082 -0.1550000011920929,-0.2809999883174896 0,-0.2809999883174896 C0.1550000011920929,-0.2809999883174896 0.2809999883174896,-0.15600000321865082 0.2809999883174896,0 C0.2809999883174896,0.1550000011920929 0.1550000011920929,0.2809999883174896 0,0.2809999883174896z"/></g></g><g transform="matrix(1,0,0,1,0,0)" opacity="1" style="display: block;"><g opacity="1" transform="matrix(1,0,0,1,35.13800048828125,64.79399871826172)"><path fill="rgb(253,211,57)" fill-opacity="1" d=" M8.880999565124512,16.173999786376953 C8.880999565124512,16.173999786376953 -8.880000114440918,16.173999786376953 -8.880000114440918,16.173999786376953 C-10.48900032043457,16.173999786376953 -11.798999786376953,14.86400032043457 -11.798999786376953,13.255999565124512 C-11.798999786376953,13.255999565124512 -11.798999786376953,-13.255999565124512 -11.798999786376953,-13.255999565124512 C-11.798999786376953,-14.864999771118164 -10.48900032043457,-16.173999786376953 -8.880000114440918,-16.173999786376953 C-8.880000114440918,-16.173999786376953 8.880999565124512,-16.173999786376953 8.880999565124512,-16.173999786376953 C10.489999771118164,-16.173999786376953 11.798999786376953,-14.864999771118164 11.798999786376953,-13.255999565124512 C11.798999786376953,-13.255999565124512 11.798999786376953,13.255999565124512 11.798999786376953,13.255999565124512 C11.798999786376953,14.86400032043457 10.489999771118164,16.173999786376953 8.880999565124512,16.173999786376953z"/></g></g><g transform="matrix(1,0,0,1,0,0)" opacity="1" style="display: block;"><g opacity="1" transform="matrix(1,0,0,1,35.13800048828125,64.81800079345703)"><path stroke-linecap="round" stroke-linejoin="round" fill-opacity="0" stroke="rgb(0,0,0)" stroke-opacity="1" stroke-width="2" d=" M-8.189000129699707,16.165000915527344 C-8.189000129699707,16.165000915527344 8.189000129699707,16.165000915527344 8.189000129699707,16.165000915527344 C10.1850004196167,16.165000915527344 11.803000450134277,14.515000343322754 11.803000450134277,12.47700023651123 C11.803000450134277,12.47700023651123 11.803000450134277,-12.477999687194824 11.803000450134277,-12.477999687194824 C11.803000450134277,-14.515000343322754 10.1850004196167,-16.166000366210938 8.189000129699707,-16.166000366210938 C8.189000129699707,-16.166000366210938 -8.189000129699707,-16.166000366210938 -8.189000129699707,-16.166000366210938 C-10.1850004196167,-16.166000366210938 -11.803000450134277,-14.515000343322754 -11.803000450134277,-12.477999687194824 C-11.803000450134277,-12.477999687194824 -11.803000450134277,12.47700023651123 -11.803000450134277,12.47700023651123 C-11.803000450134277,14.515000343322754 -10.1850004196167,16.165000915527344 -8.189000129699707,16.165000915527344z"/></g><g opacity="1" transform="matrix(1,0,0,1,35.13800048828125,60.91699981689453)"><path stroke-linecap="round" stroke-linejoin="round" fill-opacity="0" stroke="rgb(0,0,0)" stroke-opacity="1" stroke-width="1" d=" M-7.390999794006348,6.395999908447266 C-7.390999794006348,6.395999908447266 7.390999794006348,6.395999908447266 7.390999794006348,6.395999908447266 C8.071999549865723,6.395999908447266 8.623000144958496,5.855999946594238 8.623000144958496,5.189000129699707 C8.623000144958496,5.189000129699707 8.623000144958496,-5.189000129699707 8.623000144958496,-5.189000129699707 C8.623000144958496,-5.855999946594238 8.071999549865723,-6.395999908447266 7.390999794006348,-6.395999908447266 C7.390999794006348,-6.395999908447266 -7.390999794006348,-6.395999908447266 -7.390999794006348,-6.395999908447266 C-8.071000099182129,-6.395999908447266 -8.623000144958496,-5.855999946594238 -8.623000144958496,-5.189000129699707 C-8.623000144958496,-5.189000129699707 -8.623000144958496,5.189000129699707 -8.623000144958496,5.189000129699707 C-8.623000144958496,5.855999946594238 -8.071000099182129,6.395999908447266 -7.390999794006348,6.395999908447266z"/></g><g opacity="1" transform="matrix(1,0,0,1,0,0)"><path stroke-linecap="round" stroke-linejoin="miter" fill-opacity="0" stroke-miterlimit="4" stroke="rgb(0,0,0)" stroke-opacity="1" stroke-width="2" d=" M23.85300064086914,74.9800033569336 C23.85300064086914,74.9800033569336 46.54899978637695,74.9800033569336 46.54899978637695,74.9800033569336"/></g><g opacity="1" transform="matrix(1,0,0,1,28.8700008392334,63.84000015258789)"><path stroke-linecap="round" stroke-linejoin="miter" fill-opacity="0" stroke-miterlimit="4" stroke="rgb(0,0,0)" stroke-opacity="1" stroke-width="1" d=" M-2.0250000953674316,2.3499999046325684 C-2.0250000953674316,2.3499999046325684 2.0250000953674316,-2.3499999046325684 2.0250000953674316,-2.3499999046325684"/></g><g opacity="1" transform="matrix(1,0,0,1,0,0)"><path stroke-linecap="round" stroke-linejoin="miter" fill-opacity="0" stroke-miterlimit="4" stroke="rgb(0,0,0)" stroke-opacity="1" stroke-width="1" d=" M26.975000381469727,71.06199645996094 C26.975000381469727,71.06199645996094 43.29999923706055,71.06199645996094 43.29999923706055,71.06199645996094"/></g><g opacity="1" transform="matrix(1,0,0,1,33.178001403808594,63.84000015258789)"><path stroke-linecap="round" stroke-linejoin="miter" fill-opacity="0" stroke-miterlimit="4" stroke="rgb(0,0,0)" stroke-opacity="1" stroke-width="1" d=" M2.2860000133514404,2.3499999046325684 C2.2860000133514404,2.3499999046325684 -2.2860000133514404,-2.3499999046325684 -2.2860000133514404,-2.3499999046325684"/></g><g opacity="1" transform="matrix(1,0,0,1,38.92499923706055,60.59400177001953)"><path stroke-linecap="round" stroke-linejoin="miter" fill-opacity="0" stroke-miterlimit="4" stroke="rgb(0,0,0)" stroke-opacity="1" stroke-width="1" d=" M-3.4609999656677246,5.5970001220703125 C-3.4609999656677246,5.5970001220703125 3.4609999656677246,-5.5970001220703125 3.4609999656677246,-5.5970001220703125"/></g><g opacity="0.9999971441422965" transform="matrix(1,0,0,1,34.28799819946289,59.176998138427734)"><path stroke-linecap="round" stroke-linejoin="round" fill-opacity="0" stroke="rgb(0,0,0)" stroke-opacity="1" stroke-width="2" d=" M0,0.7080000042915344 C-0.39100000262260437,0.7080000042915344 -0.7080000042915344,0.3919999897480011 -0.7080000042915344,0 C-0.7080000042915344,-0.39100000262260437 -0.39100000262260437,-0.7080000042915344 0,-0.7080000042915344 C0.39100000262260437,-0.7080000042915344 0.7080000042915344,-0.39100000262260437 0.7080000042915344,0 C0.7080000042915344,0.3919999897480011 0.39100000262260437,0.7080000042915344 0,0.7080000042915344z"/></g><g opacity="0.9999971441422965" transform="matrix(1,0,0,1,35.202999114990234,78.11499786376953)"><path stroke-linecap="round" stroke-linejoin="round" fill-opacity="0" stroke="rgb(0,0,0)" stroke-opacity="1" stroke-width="2" d=" M0.0010000000474974513,0.36800000071525574 C-0.2029999941587448,0.36800000071525574 -0.36800000071525574,0.2029999941587448 -0.36800000071525574,0 C-0.36800000071525574,-0.2029999941587448 -0.2029999941587448,-0.36800000071525574 0.0010000000474974513,-0.36800000071525574 C0.20399999618530273,-0.36800000071525574 0.36800000071525574,-0.2029999941587448 0.36800000071525574,0 C0.36800000071525574,0.2029999941587448 0.20399999618530273,0.36800000071525574 0.0010000000474974513,0.36800000071525574z"/></g></g></g></svg>