<svg xmlns="http://www.w3.org/2000/svg" viewBox="0 0 105 105" width="105" height="105" preserveAspectRatio="xMidYMid meet" style="width: 100%; height: 100%; transform: translate3d(0px, 0px, 0px);">
<defs><clipPath id="__lottie_element_7"><rect width="105" height="105" x="0" y="0"/></clipPath></defs><g clip-path="url(#__lottie_element_7)">
<g transform="matrix(1,0,0,1,0,0)" opacity="1" style="display: block;"><g opacity="1" transform="matrix(1,0,0,1,52.45000076293945,52.45000076293945)"><path fill="rgb(253,211,57)" fill-opacity="1" 
d=" M0.05000000074505806,-52.45000076293945 C29.045000076293945,-52.45000076293945 52.54999923706055,-28.94499969482422 52.54999923706055,0.05000000074505806 C52.54999923706055,29.045000076293945 29.045000076293945,52.54999923706055 0.05000000074505806,52.54999923706055 C-28.94499969482422,52.54999923706055 -52.45000076293945,29.045000076293945 -52.45000076293945,0.05000000074505806 C-52.45000076293945,-28.94499969482422 -28.94499969482422,-52.45000076293945 0.05000000074505806,-52.45000076293945z"/></g></g><g style="display: block;" transform="matrix(1,0,0,1,0,-0.4519996643066406)" opacity="1"><g opacity="1" transform="matrix(1,0,0,1,50.981998443603516,51.92100143432617)"><path stroke-linecap="butt" stroke-linejoin="miter" fill-opacity="0" stroke-miterlimit="10" stroke="rgb(0,0,0)" stroke-opacity="1" stroke-width="2" d=" M-17.465999603271484,29.739999771118164 C-19.542999267578125,29.739999771118164 -21.242000579833984,28.041000366210938 -21.242000579833984,25.964000701904297 C-21.242000579833984,25.964000701904297 -21.242000579833984,-25.964000701904297 -21.242000579833984,-25.964000701904297 C-21.242000579833984,-28.041000366210938 -19.542999267578125,-29.739999771118164 -17.465999603271484,-29.739999771118164 C-17.465999603271484,-29.739999771118164 17.466999053955078,-29.739999771118164 17.466999053955078,-29.739999771118164 C19.54400062561035,-29.739999771118164 21.243000030517578,-28.041000366210938 21.243000030517578,-25.964000701904297 C21.243000030517578,-25.964000701904297 21.243000030517578,25.964000701904297 21.243000030517578,25.964000701904297 C21.243000030517578,28.041000366210938 19.54400062561035,29.739999771118164 17.466999053955078,29.739999771118164 C17.466999053955078,29.739999771118164 -17.465999603271484,29.739999771118164 -17.465999603271484,29.739999771118164z"/></g></g><g transform="matrix(1,0,0,1,0,0)" opacity="1" style="display: block;"><g opacity="1" transform="matrix(1,0,0,1,80.1729965209961,66.03600311279297)"><path stroke-linecap="butt" stroke-linejoin="miter" fill-opacity="0" stroke-miterlimit="10" stroke="rgb(0,0,0)" stroke-opacity="1" stroke-width="2" d=" M3.322000026702881,5.48799991607666 C2.305000066757202,6.103000164031982 1.0010000467300415,5.7820000648498535 0.38499999046325684,4.765999794006348 C0.38499999046325684,4.765999794006348 -4.044000148773193,-2.5510001182556152 -4.044000148773193,-2.5510001182556152 C-4.658999919891357,-3.568000078201294 -4.3379998207092285,-4.872000217437744 -3.322999954223633,-5.48799991607666 C-2.305999994277954,-6.103000164031982 -1,-5.7820000648498535 -0.38499999046325684,-4.765999794006348 C-0.38499999046325684,-4.765999794006348 4.044000148773193,2.5510001182556152 4.044000148773193,2.5510001182556152 C4.658999919891357,3.568000078201294 4.3379998207092285,4.873000144958496 3.322000026702881,5.48799991607666z"/></g></g><g transform="matrix(1,0,0,1,0,0)" opacity="1" style="display: block;"><g opacity="1" transform="matrix(1,0,0,1,75.63700103759766,58.92599868774414)"><path stroke-linecap="round" stroke-linejoin="miter" fill-opacity="0" stroke-miterlimit="4" stroke="rgb(0,0,0)" stroke-opacity="1" stroke-width="2" d=" M-0.6370000243186951,-1.024999976158142 C-0.6370000243186951,-1.024999976158142 0.6370000243186951,1.024999976158142 0.6370000243186951,1.024999976158142"/></g></g><g transform="matrix(1,0,0,1,0,0)" opacity="1" style="display: block;"><g opacity="1" transform="matrix(1,0,0,1,69.42500305175781,49.24599838256836)"><path stroke-linecap="butt" stroke-linejoin="miter" fill-opacity="0" stroke-miterlimit="10" stroke="rgb(0,0,0)" stroke-opacity="1" stroke-width="2" d=" M0,9.145999908447266 C4.9730000495910645,9.057000160217285 8.878999710083008,4.9710001945495605 8.789999961853027,-0.0010000000474974513 C8.878999710083008,-4.883999824523926 4.9730000495910645,-9.057000160217285 0,-9.145999908447266 C-4.9720001220703125,-9.057000160217285 -8.878999710083008,-4.883999824523926 -8.789999961853027,-0.0010000000474974513 C-8.878999710083008,4.882999897003174 -4.9720001220703125,9.057000160217285 0,9.145999908447266z"/></g></g><g transform="matrix(1,0,0,1,0,0)" opacity="1" style="display: block;"><g opacity="1" transform="matrix(1,0,0,1,0,0)"><path stroke-linecap="round" stroke-linejoin="round" fill-opacity="0" stroke="rgb(0,0,0)" stroke-opacity="1" stroke-width="2" d=" M36.277000427246094,62.599998474121094 C36.277000427246094,62.599998474121094 65.02200317382812,62.599998474121094 65.02200317382812,62.599998474121094"/></g></g><g transform="matrix(1,0,0,1,0,0)" opacity="1" style="display: block;"><g opacity="1" transform="matrix(1,0,0,1,0,0)"><path stroke-linecap="round" stroke-linejoin="miter" fill-opacity="0" stroke-miterlimit="4" stroke="rgb(0,0,0)" stroke-opacity="1" stroke-width="2" d=" M36.277000427246094,69.0999984741211 C36.277000427246094,69.0999984741211 65.02200317382812,69.0999984741211 65.02200317382812,69.0999984741211"/></g></g><g transform="matrix(1,0,0,1,0,0)" opacity="1" style="display: block;"><g opacity="1" transform="matrix(1,0,0,1,0,0)"><path stroke-linecap="round" stroke-linejoin="miter" fill-opacity="0" stroke-miterlimit="4" stroke="rgb(0,0,0)" stroke-opacity="1" stroke-width="2" d=" M36.32600021362305,75.5999984741211 C36.32600021362305,75.5999984741211 64.9729995727539,75.5999984741211 64.9729995727539,75.5999984741211"/></g></g><g transform="matrix(1,0,0,1,0,0)" opacity="1" style="display: block;"><g opacity="1" transform="matrix(1,0,0,1,51.93299865722656,47.39099884033203)"><path stroke-linecap="butt" stroke-linejoin="miter" fill-opacity="0" stroke-miterlimit="10" stroke="rgb(0,0,0)" stroke-opacity="1" stroke-width="2" d=" M-1.774999976158142,7.7170000076293945 C-3.0179998874664307,7.7170000076293945 -3.99399995803833,6.627999782562256 -3.99399995803833,5.265999794006348 C-3.99399995803833,5.265999794006348 -3.99399995803833,-5.265999794006348 -3.99399995803833,-5.265999794006348 C-3.99399995803833,-6.627999782562256 -3.0179998874664307,-7.7170000076293945 -1.774999976158142,-7.7170000076293945 C-1.774999976158142,-7.7170000076293945 1.774999976158142,-7.7170000076293945 1.774999976158142,-7.7170000076293945 C3.0169999599456787,-7.7170000076293945 3.99399995803833,-6.627999782562256 3.99399995803833,-5.265999794006348 C3.99399995803833,-5.265999794006348 3.99399995803833,5.35699987411499 3.99399995803833,5.35699987411499 C3.99399995803833,6.627999782562256 3.0169999599456787,7.7170000076293945 1.774999976158142,7.7170000076293945 C1.774999976158142,7.7170000076293945 -1.774999976158142,7.7170000076293945 -1.774999976158142,7.7170000076293945z"/></g></g><g transform="matrix(1,0,0,1,0,0)" opacity="1" style="display: block;"><g opacity="1" transform="matrix(1,0,0,1,40.00199890136719,45.277000427246094)"><path stroke-linecap="butt" stroke-linejoin="miter" fill-opacity="0" stroke-miterlimit="10" stroke="rgb(0,0,0)" stroke-opacity="1" stroke-width="2" d=" M-1.7100000381469727,9.782999992370605 C-2.9030001163482666,9.782999992370605 -3.8570001125335693,8.690999984741211 -3.8570001125335693,7.326000213623047 C-3.8570001125335693,7.326000213623047 -3.8570001125335693,-7.326000213623047 -3.8570001125335693,-7.326000213623047 C-3.8570001125335693,-8.690999984741211 -2.9030001163482666,-9.782999992370605 -1.7100000381469727,-9.782999992370605 C-1.7100000381469727,-9.782999992370605 1.7100000381469727,-9.782999992370605 1.7100000381469727,-9.782999992370605 C2.9030001163482666,-9.782999992370605 3.8570001125335693,-8.690999984741211 3.8570001125335693,-7.326000213623047 C3.8570001125335693,-7.326000213623047 3.8570001125335693,7.326000213623047 3.8570001125335693,7.326000213623047 C3.8570001125335693,8.690999984741211 2.9030001163482666,9.782999992370605 1.7100000381469727,9.782999992370605 C1.7100000381469727,9.782999992370605 -1.7100000381469727,9.782999992370605 -1.7100000381469727,9.782999992370605z"/></g></g></g></svg>