<svg xmlns="http://www.w3.org/2000/svg" viewBox="0 0 105 105" width="105" height="105" preserveAspectRatio="xMidYMid meet" style="width: 100%; height: 100%; transform: translate3d(0px, 0px, 0px);"><defs><clipPath id="__lottie_element_17"><rect width="105" height="105" x="0" y="0"/></clipPath></defs><g clip-path="url(#__lottie_element_17)"><g transform="matrix(1,0,0,1,0,0)" opacity="1" style="display: block;"><g opacity="1" transform="matrix(1,0,0,1,52.452999114990234,52.45199966430664)"><path fill="rgb(253,211,57)" fill-opacity="1" d=" M0.0010000000474974513,-52.45199966430664 C28.969999313354492,-52.45199966430664 52.45399856567383,-28.968000411987305 52.45399856567383,0.0010000000474974513 C52.45399856567383,28.969999313354492 28.969999313354492,52.45399856567383 0.0010000000474974513,52.45399856567383 C-28.968000411987305,52.45399856567383 -52.45199966430664,28.969999313354492 -52.45199966430664,0.0010000000474974513 C-52.45199966430664,-28.968000411987305 -28.968000411987305,-52.45199966430664 0.0010000000474974513,-52.45199966430664z"/></g></g><g transform="matrix(1,0,0,1,0,-0.4519996643066406)" opacity="1" style="display: block;"><g opacity="1" transform="matrix(1,0,0,1,52.35499954223633,47.76599884033203)"><path stroke-linecap="butt" stroke-linejoin="miter" fill-opacity="0" stroke-miterlimit="10" stroke="rgb(0,0,0)" stroke-opacity="1" stroke-width="2" d=" M-25.054000854492188,21.820999145507812 C-27.285999298095703,21.820999145507812 -29.094999313354492,20.01099967956543 -29.094999313354492,17.780000686645508 C-29.094999313354492,17.780000686645508 -29.094999313354492,-17.780000686645508 -29.094999313354492,-17.780000686645508 C-29.094999313354492,-20.011999130249023 -27.285999298095703,-21.820999145507812 -25.054000854492188,-21.820999145507812 C-25.054000854492188,-21.820999145507812 25.054000854492188,-21.820999145507812 25.054000854492188,-21.820999145507812 C27.28499984741211,-21.820999145507812 29.094999313354492,-20.011999130249023 29.094999313354492,-17.780000686645508 C29.094999313354492,-17.780000686645508 29.094999313354492,17.780000686645508 29.094999313354492,17.780000686645508 C29.094999313354492,20.01099967956543 27.28499984741211,21.820999145507812 25.054000854492188,21.820999145507812 C25.054000854492188,21.820999145507812 -25.054000854492188,21.820999145507812 -25.054000854492188,21.820999145507812z"/></g></g><g transform="matrix(-1,0,0,1,104.90399932861328,0)" opacity="1" style="display: block;"><g opacity="1" transform="matrix(1,0,0,1,52.777000427246094,74.6780014038086)"><path stroke-linecap="butt" stroke-linejoin="miter" fill-opacity="0" stroke-miterlimit="10" stroke="rgb(0,0,0)" stroke-opacity="1" stroke-width="2" d=" M-8.536999702453613,4.997000217437744 C-9.052000045776367,4.997000217437744 -9.543000221252441,4.88100004196167 -9.954999923706055,4.659999847412109 C-10.350000381469727,4.448999881744385 -10.668000221252441,4.146999835968018 -10.87399959564209,3.7880001068115234 C-11.267999649047852,3.0999999046325684 -11.218000411987305,2.2820000648498535 -10.734000205993652,1.5429999828338623 C-10.734000205993652,1.5429999828338623 -6.863999843597412,-4.997000217437744 -6.863999843597412,-4.997000217437744 C-6.863999843597412,-4.997000217437744 6.861999988555908,-4.997000217437744 6.861999988555908,-4.997000217437744 C6.861999988555908,-4.997000217437744 10.732999801635742,1.5429999828338623 10.732999801635742,1.5429999828338623 C11.215999603271484,2.2820000648498535 11.267999649047852,3.0999999046325684 10.871999740600586,3.7880001068115234 C10.666999816894531,4.146999835968018 10.348999977111816,4.448999881744385 9.954000473022461,4.659999847412109 C9.541000366210938,4.88100004196167 9.050999641418457,4.997000217437744 8.53499984741211,4.997000217437744 C8.53499984741211,4.997000217437744 -8.536999702453613,4.997000217437744 -8.536999702453613,4.997000217437744z"/></g></g><g transform="matrix(1,0,0,1,0,0)" opacity="1" style="display: block;"><g opacity="1" transform="matrix(1,0,0,1,0,0)"><path stroke-linecap="round" stroke-linejoin="round" fill-opacity="0" stroke="rgb(0,0,0)" stroke-opacity="1" stroke-width="1" d=" M41.85900115966797,49.777000427246094 C41.85900115966797,49.777000427246094 41.85900115966797,60.11000061035156 41.85900115966797,63.29399871826172"/></g></g><g transform="matrix(1,0,0,1,0,0)" opacity="1" style="display: block;"><g opacity="1" transform="matrix(1,0,0,1,0,0)"><path stroke-linecap="round" stroke-linejoin="miter" fill-opacity="0" stroke-miterlimit="4" stroke="rgb(0,0,0)" stroke-opacity="1" stroke-width="2" d=" M34.85900115966797,41.79399871826172 C34.85900115966797,41.79399871826172 41.85900115966797,41.79399871826172 45.3849983215332,41.79399871826172"/></g></g><g transform="matrix(1,0,0,1,0,0)" opacity="1" style="display: block;"><g opacity="1" transform="matrix(1,0,0,1,0,0)"><path stroke-linecap="round" stroke-linejoin="miter" fill-opacity="0" stroke-miterlimit="4" stroke="rgb(0,0,0)" stroke-opacity="1" stroke-width="2" d=" M34.85900115966797,36.875 C34.85900115966797,36.875 47.31700134277344,36.875 50.72800064086914,36.875"/></g></g><g transform="matrix(1,0,0,1,0,0)" opacity="1" style="display: block;"><g opacity="1" transform="matrix(1,0,0,1,52.354000091552734,56.900001525878906)"><path stroke-linecap="square" stroke-linejoin="bevel" fill-opacity="0" stroke="rgb(0,0,0)" stroke-opacity="1" stroke-width="2" d=" M-20.371999740600586,8.442999839782715 C-21.11199951171875,8.442999839782715 -21.711999893188477,7.8420000076293945 -21.711999893188477,7.103000164031982 C-21.711999893188477,7.103000164031982 -21.711999893188477,-7.103000164031982 -21.711999893188477,-7.103000164031982 C-21.711999893188477,-7.8429999351501465 -21.11199951171875,-8.442999839782715 -20.371999740600586,-8.442999839782715 C-20.371999740600586,-8.442999839782715 20.374000549316406,-8.442999839782715 20.374000549316406,-8.442999839782715 C21.11400032043457,-8.442999839782715 21.711999893188477,-7.8429999351501465 21.711999893188477,-7.103000164031982 C21.711999893188477,-7.103000164031982 21.711999893188477,7.103000164031982 21.711999893188477,7.103000164031982 C21.711999893188477,7.8420000076293945 21.11400032043457,8.442999839782715 20.374000549316406,8.442999839782715 C20.374000549316406,8.442999839782715 -20.371999740600586,8.442999839782715 -20.371999740600586,8.442999839782715z"/></g><g opacity="1" transform="matrix(1,0,0,1,45.87900161743164,58.132999420166016)"><path stroke-linecap="round" stroke-linejoin="round" fill-opacity="0" stroke="rgb(0,0,0)" stroke-opacity="1" stroke-width="1" d=" M-3.8310000896453857,2.943000078201294 C-3.8310000896453857,2.943000078201294 3.8310000896453857,-2.943000078201294 3.8310000896453857,-2.943000078201294"/></g><g opacity="1" transform="matrix(1,0,0,1,58.323001861572266,56.73500061035156)"><path stroke-linecap="round" stroke-linejoin="round" fill-opacity="0" stroke="rgb(0,0,0)" stroke-opacity="1" stroke-width="1" d=" M-2.2170000076293945,2.2049999237060547 C-2.2170000076293945,2.2049999237060547 2.2170000076293945,-2.2049999237060547 2.2170000076293945,-2.2049999237060547"/></g><g opacity="1" transform="matrix(1,0,0,1,61.88999938964844,56.89899826049805)"><path stroke-linecap="round" stroke-linejoin="round" fill-opacity="0" stroke="rgb(0,0,0)" stroke-opacity="1" stroke-width="1" d=" M1.350000023841858,2.368000030517578 C1.350000023841858,2.368000030517578 -1.350000023841858,-2.368000030517578 -1.350000023841858,-2.368000030517578"/></g><g opacity="1" transform="matrix(1,0,0,1,66.11499786376953,59.465999603271484)"><path stroke-linecap="round" stroke-linejoin="round" fill-opacity="0" stroke="rgb(0,0,0)" stroke-opacity="1" stroke-width="1" d=" M1.3270000219345093,1.6579999923706055 C1.3270000219345093,1.6579999923706055 -1.3279999494552612,-1.6579999923706055 -1.3279999494552612,-1.6579999923706055"/></g><g opacity="1" transform="matrix(1,0,0,1,70.66400146484375,60.0629997253418)"><path stroke-linecap="round" stroke-linejoin="round" fill-opacity="0" stroke="rgb(0,0,0)" stroke-opacity="1" stroke-width="1" d=" M-3.2209999561309814,1.0609999895095825 C-3.2209999561309814,1.0609999895095825 3.2209999561309814,-1.0609999895095825 3.2209999561309814,-1.0609999895095825"/></g><g opacity="1" transform="matrix(1,0,0,1,51.57099914550781,56.76599884033203)"><path stroke-linecap="round" stroke-linejoin="round" fill-opacity="0" stroke="rgb(0,0,0)" stroke-opacity="1" stroke-width="1" d=" M1.8140000104904175,1.5260000228881836 C1.8140000104904175,1.5260000228881836 -1.8140000104904175,-1.5260000228881836 -1.8140000104904175,-1.5260000228881836"/></g><g opacity="1" transform="matrix(1,0,0,1,54.702999114990234,58.617000579833984)"><path stroke-linecap="round" stroke-linejoin="round" fill-opacity="0" stroke="rgb(0,0,0)" stroke-opacity="1" stroke-width="1" d=" M1.2999999523162842,0.28600001335144043 C1.2999999523162842,0.28600001335144043 -1.2999999523162842,-0.28600001335144043 -1.2999999523162842,-0.28600001335144043"/></g><g opacity="1" transform="matrix(1,0,0,1,0,0)"><path stroke-linecap="round" stroke-linejoin="round" fill-opacity="0" stroke="rgb(0,0,0)" stroke-opacity="1" stroke-width="1" d=" M33.750999450683594,52.89500045776367 C33.750999450683594,52.89500045776367 39.51300048828125,52.89500045776367 39.51300048828125,52.89500045776367"/></g><g opacity="1" transform="matrix(1,0,0,1,0,0)"><path stroke-linecap="round" stroke-linejoin="round" fill-opacity="0" stroke="rgb(0,0,0)" stroke-opacity="1" stroke-width="1" d=" M33.750999450683594,55.564998626708984 C33.750999450683594,55.564998626708984 39.51300048828125,55.564998626708984 39.51300048828125,55.564998626708984"/></g><g opacity="1" transform="matrix(1,0,0,1,0,0)"><path stroke-linecap="round" stroke-linejoin="round" fill-opacity="0" stroke="rgb(0,0,0)" stroke-opacity="1" stroke-width="1" d=" M33.750999450683594,58.236000061035156 C33.750999450683594,58.236000061035156 39.51300048828125,58.236000061035156 39.51300048828125,58.236000061035156"/></g><g opacity="1" transform="matrix(1,0,0,1,0,0)"><path stroke-linecap="round" stroke-linejoin="round" fill-opacity="0" stroke="rgb(0,0,0)" stroke-opacity="1" stroke-width="1" d=" M33.750999450683594,60.90599822998047 C33.750999450683594,60.90599822998047 39.51300048828125,60.90599822998047 39.51300048828125,60.90599822998047"/></g><g opacity="1" transform="matrix(1,0,0,1,64.01399993896484,58.53799819946289)"><path stroke-linecap="round" stroke-linejoin="round" fill-opacity="0" stroke="rgb(0,0,0)" stroke-opacity="1" stroke-width="1" d=" M-0.7739999890327454,0.7300000190734863 C-0.7739999890327454,0.7300000190734863 0.7739999890327454,-0.7300000190734863 0.7739999890327454,-0.7300000190734863"/></g></g><g transform="matrix(1,0,0,1,0,0)" opacity="1" style="display: block;"><g opacity="1" transform="matrix(1,0,0,1,52.35499954223633,39.053001403808594)"><path stroke-linecap="round" stroke-linejoin="round" fill-opacity="0" stroke="rgb(0,0,0)" stroke-opacity="1" stroke-width="2" d=" M-20.475000381469727,8.621000289916992 C-21.225000381469727,8.614999771118164 -21.827999114990234,8.001999855041504 -21.82200050354004,7.251999855041504 C-21.82200050354004,7.251999855041504 -21.82200050354004,-7.251999855041504 -21.82200050354004,-7.251999855041504 C-21.827999114990234,-8.001999855041504 -21.225000381469727,-8.61400032043457 -20.475000381469727,-8.621000289916992 C-20.475000381469727,-8.621000289916992 20.475000381469727,-8.621000289916992 20.475000381469727,-8.621000289916992 C21.225000381469727,-8.61400032043457 21.827999114990234,-8.001999855041504 21.82200050354004,-7.251999855041504 C21.82200050354004,-7.251999855041504 21.82200050354004,7.251999855041504 21.82200050354004,7.251999855041504 C21.827999114990234,8.001999855041504 21.225000381469727,8.614999771118164 20.475000381469727,8.621000289916992 C20.475000381469727,8.621000289916992 -20.475000381469727,8.621000289916992 -20.475000381469727,8.621000289916992z"/></g></g><g style="display: block;" transform="matrix(1,0,0,1,-0.8670310974121094,-0.4519996643066406)" opacity="0.8965967626167287"><g opacity="1" transform="matrix(1,0,0,1,67.39199829101562,41.1609992980957)"><path stroke-linecap="butt" stroke-linejoin="miter" fill-opacity="0" stroke-miterlimit="10" stroke="rgb(0,0,0)" stroke-opacity="1" stroke-width="2" d=" M0.2879999876022339,0.0010000000474974513 C0.2879999876022339,0.1599999964237213 0.15800000727176666,0.2879999876022339 -0.0010000000474974513,0.2879999876022339 C-0.1589999943971634,0.2879999876022339 -0.2879999876022339,0.1599999964237213 -0.2879999876022339,0.0010000000474974513 C-0.2879999876022339,-0.15800000727176666 -0.1589999943971634,-0.2879999876022339 -0.0010000000474974513,-0.2879999876022339 C0.15800000727176666,-0.2879999876022339 0.2879999876022339,-0.15800000727176666 0.2879999876022339,0.0010000000474974513z"/></g></g><g style="display: block;" transform="matrix(1,0,0,1,-0.5420761108398438,-0.4519996643066406)" opacity="0.9776633853798146"><g opacity="1" transform="matrix(1,0,0,1,64.01899719238281,39.474998474121094)"><path stroke-linecap="butt" stroke-linejoin="miter" fill-opacity="0" stroke-miterlimit="10" stroke="rgb(0,0,0)" stroke-opacity="1" stroke-width="2" d=" M-0.0010000000474974513,0.871999979019165 C-0.4819999933242798,0.871999979019165 -0.871999979019165,0.4819999933242798 -0.871999979019165,0.0010000000474974513 C-0.871999979019165,-0.48100000619888306 -0.4819999933242798,-0.871999979019165 -0.0010000000474974513,-0.871999979019165 C0.48100000619888306,-0.871999979019165 0.871999979019165,-0.48100000619888306 0.871999979019165,0.0010000000474974513 C0.871999979019165,0.4819999933242798 0.48100000619888306,0.871999979019165 -0.0010000000474974513,0.871999979019165z"/></g></g><g style="display: block;" transform="matrix(1,0,0,1,-0.45206451416015625,-0.4519996643066406)" opacity="0.9999883453662157"><g opacity="1" transform="matrix(1,0,0,1,58.959999084472656,37.22600173950195)"><path stroke-linecap="round" stroke-linejoin="miter" fill-opacity="0" stroke-miterlimit="10" stroke="rgb(0,0,0)" stroke-opacity="1" stroke-width="3" d=" M0,1.496999979019165 C-0.8259999752044678,1.496999979019165 -1.496000051498413,0.8259999752044678 -1.496000051498413,-0.0010000000474974513 C-1.496000051498413,-0.8270000219345093 -0.8259999752044678,-1.496999979019165 0,-1.496999979019165 C0.8259999752044678,-1.496999979019165 1.496000051498413,-0.8270000219345093 1.496000051498413,-0.0010000000474974513 C1.496000051498413,0.8259999752044678 0.8259999752044678,1.496999979019165 0,1.496999979019165z"/></g></g></g></svg>