<svg xmlns="http://www.w3.org/2000/svg" viewBox="0 0 105 105" width="105" height="105" preserveAspectRatio="xMidYMid meet" style="width: 100%; height: 100%; transform: translate3d(0px, 0px, 0px);"><defs><clipPath id="__lottie_element_55"><rect width="105" height="105" x="0" y="0"/></clipPath></defs><g clip-path="url(#__lottie_element_55)"><g transform="matrix(1,0,0,1,0,0)" opacity="1" style="display: block;"><g opacity="1" transform="matrix(1,0,0,1,52.452999114990234,52.45199966430664)"><path fill="rgb(253,211,57)" fill-opacity="1" d=" M0.0010000000474974513,-52.45199966430664 C28.969999313354492,-52.45199966430664 52.45399856567383,-28.968000411987305 52.45399856567383,0.0010000000474974513 C52.45399856567383,28.969999313354492 28.969999313354492,52.45399856567383 0.0010000000474974513,52.45399856567383 C-28.968000411987305,52.45399856567383 -52.45199966430664,28.969999313354492 -52.45199966430664,0.0010000000474974513 C-52.45199966430664,-28.968000411987305 -28.968000411987305,-52.45199966430664 0.0010000000474974513,-52.45199966430664z"/></g></g><g transform="matrix(1,0,0,1,0,0)" opacity="1" style="display: block;"><g opacity="1" transform="matrix(1,0,0,1,60.53099822998047,73.73699951171875)"><path stroke-linecap="round" stroke-linejoin="miter" fill-opacity="0" stroke-miterlimit="4" stroke="rgb(0,0,0)" stroke-opacity="1" stroke-width="2" d=" M-3.7339999675750732,3.6610000133514404 C-3.7339999675750732,3.6610000133514404 3.7339999675750732,-3.6610000133514404 3.7339999675750732,-3.6610000133514404"/></g><g opacity="1" transform="matrix(1,0,0,1,62.95399856567383,75.18599700927734)"><path stroke-linecap="round" stroke-linejoin="miter" fill-opacity="0" stroke-miterlimit="4" stroke="rgb(0,0,0)" stroke-opacity="1" stroke-width="2" d=" M1.3109999895095825,-5.109000205993652 C1.3109999895095825,-5.109000205993652 -1.3109999895095825,5.109000205993652 -1.3109999895095825,5.109000205993652"/></g><g opacity="1" transform="matrix(1,0,0,1,65.78099822998047,67.59400177001953)"><path stroke-linecap="round" stroke-linejoin="round" fill-opacity="0" stroke="rgb(0,0,0)" stroke-opacity="1" stroke-width="2" d=" M-1.0529999732971191,1.8240000009536743 C-2.061000108718872,1.2419999837875366 -2.4059998989105225,-0.04600000008940697 -1.8240000009536743,-1.0540000200271606 C-1.2419999837875366,-2.061000108718872 0.04600000008940697,-2.4059998989105225 1.0529999732971191,-1.8240000009536743 C2.059999942779541,-1.2419999837875366 2.4059998989105225,0.04600000008940697 1.8240000009536743,1.0529999732971191 C1.2430000305175781,2.059999942779541 -0.04600000008940697,2.4049999713897705 -1.0529999732971191,1.8240000009536743z"/></g><g opacity="1" transform="matrix(1,0,0,1,67.57499694824219,64.62899780273438)"><path stroke-linecap="round" stroke-linejoin="miter" fill-opacity="0" stroke-miterlimit="4" stroke="rgb(0,0,0)" stroke-opacity="1" stroke-width="2" d=" M-0.3610000014305115,0.625 C-0.3610000014305115,0.625 0.3610000014305115,-0.6240000128746033 0.3610000014305115,-0.6240000128746033"/></g></g><g transform="matrix(1,0,0,1,0,0)" opacity="1" style="display: block;"><g opacity="1" transform="matrix(1,0,0,1,40.28900146484375,69.06700134277344)"><path stroke-linecap="round" stroke-linejoin="round" fill-opacity="0" stroke="rgb(0,0,0)" stroke-opacity="1" stroke-width="2" d=" M-3.494999885559082,4.885000228881836 C-4.138999938964844,4.885000228881836 -4.659999847412109,4.359000205993652 -4.659999847412109,3.7079999446868896 C-4.659999847412109,3.7079999446868896 -4.659999847412109,-3.7079999446868896 -4.659999847412109,-3.7079999446868896 C-4.659999847412109,-4.357999801635742 -4.138999938964844,-4.886000156402588 -3.494999885559082,-4.886000156402588 C-3.494999885559082,-4.886000156402588 3.494999885559082,-4.886000156402588 3.494999885559082,-4.886000156402588 C4.138999938964844,-4.886000156402588 4.659999847412109,-4.357999801635742 4.659999847412109,-3.7079999446868896 C4.659999847412109,-3.7079999446868896 4.659999847412109,3.7079999446868896 4.659999847412109,3.7079999446868896 C4.659999847412109,4.359000205993652 4.138999938964844,4.885000228881836 3.494999885559082,4.885000228881836 C3.494999885559082,4.885000228881836 -3.494999885559082,4.885000228881836 -3.494999885559082,4.885000228881836z"/></g><g opacity="0.27" transform="matrix(1,0,0,1,38.08700180053711,70.62300109863281)"><path fill="rgb(0,0,0)" fill-opacity="1" d=" M-3.2090001106262207,-5.894999980926514 C-3.2090001106262207,-5.894999980926514 -4.183000087738037,-5.894999980926514 -4.183000087738037,-5.894999980926514 C-4.9670000076293945,-5.894999980926514 -5.6020002365112305,-5.258999824523926 -5.6020002365112305,-4.47599983215332 C-5.6020002365112305,-4.47599983215332 -5.6020002365112305,4.4629998207092285 -5.6020002365112305,4.4629998207092285 C-5.6020002365112305,5.247000217437744 -4.9670000076293945,5.881999969482422 -4.183000087738037,5.881999969482422 C-4.183000087738037,5.881999969482422 -0.6669999957084656,5.894000053405762 1.809000015258789,5.894000053405762 C3.0460000038146973,5.894000053405762 4.02400016784668,5.890999794006348 4.171999931335449,5.881999969482422 C5.607999801635742,5.881999969482422 5.60099983215332,4.802000045776367 5.60099983215332,4.802000045776367 C5.60099983215332,4.802000045776367 5.60099983215332,4.056000232696533 5.60099983215332,4.056000232696533 C5.60099983215332,4.056000232696533 -3.2090001106262207,4.056000232696533 -3.2090001106262207,4.056000232696533 C-3.2090001106262207,4.056000232696533 -3.2090001106262207,-5.894999980926514 -3.2090001106262207,-5.894999980926514z"/></g><g opacity="1" transform="matrix(1,0,0,1,0,0)"><path stroke-linecap="round" stroke-linejoin="miter" fill-opacity="0" stroke-miterlimit="4" stroke="rgb(0,0,0)" stroke-opacity="1" stroke-width="2" d=" M44.617000579833984,78.13700103759766 C44.617000579833984,78.13700103759766 35.96200180053711,78.13700103759766 35.96200180053711,78.13700103759766"/></g><g opacity="0.27" transform="matrix(1,0,0,1,0,0)"><path stroke-linecap="round" stroke-linejoin="miter" fill-opacity="0" stroke-miterlimit="4" stroke="rgb(0,0,0)" stroke-opacity="1" stroke-width="2" d=" M33.83399963378906,79.697998046875 C33.83399963378906,79.697998046875 42.48899841308594,79.697998046875 42.48899841308594,79.697998046875"/></g></g><g style="display: block;" transform="matrix(1,0,0,1,-0.4519996643066406,-0.4519996643066406)" opacity="1"><g opacity="1" transform="matrix(1,0,0,1,25.25,26.56100082397461)"><path fill="rgb(0,0,0)" fill-opacity="1" d=" M0,-1.5609999895095825 C-0.8619999885559082,-1.5609999895095825 -1.5609999895095825,-0.8619999885559082 -1.5609999895095825,0 C-1.5609999895095825,0.8619999885559082 -0.8619999885559082,1.5609999895095825 0,1.5609999895095825 C0.8619999885559082,1.5609999895095825 1.5609999895095825,0.8619999885559082 1.5609999895095825,0 C1.5609999895095825,-0.8619999885559082 0.8619999885559082,-1.5609999895095825 0,-1.5609999895095825z"/></g></g><g transform="matrix(1,0,0,1,-0.4519996643066406,-0.4519996643066406)" opacity="0.9999900941509731" style="display: block;"><g opacity="1" transform="matrix(1,0,0,1,48.6619987487793,26.56100082397461)"><path fill="rgb(0,0,0)" fill-opacity="1" d=" M0,-1.5609999895095825 C-0.8619999885559082,-1.5609999895095825 -1.5609999895095825,-0.8619999885559082 -1.5609999895095825,0 C-1.5609999895095825,0.8619999885559082 -0.8619999885559082,1.5609999895095825 0,1.5609999895095825 C0.8619999885559082,1.5609999895095825 1.5609999895095825,0.8619999885559082 1.5609999895095825,0 C1.5609999895095825,-0.8619999885559082 0.8619999885559082,-1.5609999895095825 0,-1.5609999895095825z"/></g></g><g transform="matrix(1,0,0,1,-0.4519996643066406,-0.4519996643066406)" opacity="1" style="display: block;"><g opacity="1" transform="matrix(1,0,0,1,72.0739974975586,26.56100082397461)"><path fill="rgb(0,0,0)" fill-opacity="1" d=" M0.0010000000474974513,-1.5609999895095825 C-0.8610000014305115,-1.5609999895095825 -1.562000036239624,-0.8619999885559082 -1.562000036239624,0 C-1.562000036239624,0.8619999885559082 -0.8610000014305115,1.5609999895095825 0.0010000000474974513,1.5609999895095825 C0.8629999756813049,1.5609999895095825 1.562000036239624,0.8619999885559082 1.562000036239624,0 C1.562000036239624,-0.8619999885559082 0.8629999756813049,-1.5609999895095825 0.0010000000474974513,-1.5609999895095825z"/></g></g><g transform="matrix(1,0,0,1,0,0)" opacity="1" style="display: block;"><g opacity="1" transform="matrix(1,0,0,1,41,43.44599914550781)"><path stroke-linecap="round" stroke-linejoin="miter" fill-opacity="0" stroke-miterlimit="4" stroke="rgb(0,0,0)" stroke-opacity="1" stroke-width="2" d=" M-0.781000018119812,-0.781000018119812 C-0.781000018119812,-0.781000018119812 0.781000018119812,0.781000018119812 0.781000018119812,0.781000018119812"/></g><g opacity="1" transform="matrix(1,0,0,1,41,45.00699996948242)"><path stroke-linecap="round" stroke-linejoin="miter" fill-opacity="0" stroke-miterlimit="4" stroke="rgb(0,0,0)" stroke-opacity="1" stroke-width="2" d=" M-0.781000018119812,0.781000018119812 C-0.781000018119812,0.781000018119812 0.781000018119812,-0.781000018119812 0.781000018119812,-0.781000018119812"/></g><g opacity="1" transform="matrix(1,0,0,1,64.41200256347656,43.44599914550781)"><path stroke-linecap="round" stroke-linejoin="miter" fill-opacity="0" stroke-miterlimit="4" stroke="rgb(0,0,0)" stroke-opacity="1" stroke-width="2" d=" M-0.781000018119812,-0.781000018119812 C-0.781000018119812,-0.781000018119812 0.781000018119812,0.781000018119812 0.781000018119812,0.781000018119812"/></g><g opacity="1" transform="matrix(1,0,0,1,64.41200256347656,45.00699996948242)"><path stroke-linecap="round" stroke-linejoin="miter" fill-opacity="0" stroke-miterlimit="4" stroke="rgb(0,0,0)" stroke-opacity="1" stroke-width="2" d=" M-0.781000018119812,0.781000018119812 C-0.781000018119812,0.781000018119812 0.781000018119812,-0.781000018119812 0.781000018119812,-0.781000018119812"/></g></g><g transform="matrix(1,0,0,1,0,0)" opacity="1" style="display: block;"><g opacity="1" transform="matrix(1,0,0,1,29.222999572753906,44.86399841308594)"><path stroke-linecap="round" stroke-linejoin="round" fill-opacity="0" stroke="rgb(0,0,0)" stroke-opacity="1" stroke-width="2" d=" M-4.431000232696533,14.163000106811523 C-6.5279998779296875,14.163000106811523 -8.227999687194824,12.385000228881836 -8.227999687194824,10.192000389099121 C-8.227999687194824,10.192000389099121 -8.227999687194824,-10.192000389099121 -8.227999687194824,-10.192000389099121 C-8.227999687194824,-12.385000228881836 -6.5279998779296875,-14.163000106811523 -4.431000232696533,-14.163000106811523 C-4.431000232696533,-14.163000106811523 4.429999828338623,-14.163000106811523 4.429999828338623,-14.163000106811523 C6.5279998779296875,-14.163000106811523 8.227999687194824,-12.385000228881836 8.227999687194824,-10.192000389099121 C8.227999687194824,-10.192000389099121 8.227999687194824,10.192000389099121 8.227999687194824,10.192000389099121 C8.227999687194824,12.385000228881836 6.5279998779296875,14.163000106811523 4.429999828338623,14.163000106811523 C4.429999828338623,14.163000106811523 -4.431000232696533,14.163000106811523 -4.431000232696533,14.163000106811523z"/></g><g opacity="1" transform="matrix(1,0,0,1,29.222999572753906,39.82699966430664)"><path stroke-linecap="round" stroke-linejoin="round" fill-opacity="0" stroke="rgb(0,0,0)" stroke-opacity="1" stroke-width="2" d=" M-3.4800000190734863,4.883999824523926 C-4.120999813079834,4.883999824523926 -4.639999866485596,4.35699987411499 -4.639999866485596,3.7070000171661377 C-4.639999866485596,3.7070000171661377 -4.639999866485596,-3.7070000171661377 -4.639999866485596,-3.7070000171661377 C-4.639999866485596,-4.35699987411499 -4.120999813079834,-4.883999824523926 -3.4800000190734863,-4.883999824523926 C-3.4800000190734863,-4.883999824523926 3.4800000190734863,-4.883999824523926 3.4800000190734863,-4.883999824523926 C4.120999813079834,-4.883999824523926 4.639999866485596,-4.35699987411499 4.639999866485596,-3.7070000171661377 C4.639999866485596,-3.7070000171661377 4.639999866485596,3.7070000171661377 4.639999866485596,3.7070000171661377 C4.639999866485596,4.35699987411499 4.120999813079834,4.883999824523926 3.4800000190734863,4.883999824523926 C3.4800000190734863,4.883999824523926 -3.4800000190734863,4.883999824523926 -3.4800000190734863,4.883999824523926z"/></g><g opacity="1" transform="matrix(1,0,0,1,0,0)"><path stroke-linecap="round" stroke-linejoin="miter" fill-opacity="0" stroke-miterlimit="4" stroke="rgb(0,0,0)" stroke-opacity="1" stroke-width="2" d=" M21.20599937438965,53.02299880981445 C21.20599937438965,53.02299880981445 37.38100051879883,53.02299880981445 37.38100051879883,53.02299880981445"/></g><g opacity="1" transform="matrix(1,0,0,1,0,0)"><path stroke-linecap="round" stroke-linejoin="miter" fill-opacity="0" stroke-miterlimit="4" stroke="rgb(0,0,0)" stroke-opacity="1" stroke-width="2" d=" M24.895000457763672,48.90800094604492 C24.895000457763672,48.90800094604492 33.54999923706055,48.90800094604492 33.54999923706055,48.90800094604492"/></g><g opacity="1" transform="matrix(1,0,0,1,29.222000122070312,56.073001861572266)"><path fill="rgb(0,0,0)" fill-opacity="1" d=" M0,-0.8510000109672546 C-0.4699999988079071,-0.8510000109672546 -0.8510000109672546,-0.4699999988079071 -0.8510000109672546,0.0010000000474974513 C-0.8510000109672546,0.4699999988079071 -0.4699999988079071,0.8510000109672546 0,0.8510000109672546 C0.4699999988079071,0.8510000109672546 0.8510000109672546,0.4699999988079071 0.8510000109672546,0.0010000000474974513 C0.8510000109672546,-0.4699999988079071 0.4699999988079071,-0.8510000109672546 0,-0.8510000109672546z"/></g></g><g transform="matrix(1,0,0,1,0,0)" opacity="1" style="display: block;"><g opacity="1" transform="matrix(1,0,0,1,52.659000396728516,44.87300109863281)"><path stroke-linecap="round" stroke-linejoin="round" fill-opacity="0" stroke="rgb(0,0,0)" stroke-opacity="1" stroke-width="2" d=" M-4.427000045776367,14.17300033569336 C-6.5229997634887695,14.17300033569336 -8.220999717712402,12.395000457763672 -8.220999717712402,10.199000358581543 C-8.220999717712402,10.199000358581543 -8.220999717712402,-10.199000358581543 -8.220999717712402,-10.199000358581543 C-8.220999717712402,-12.394000053405762 -6.5229997634887695,-14.17300033569336 -4.427000045776367,-14.17300033569336 C-4.427000045776367,-14.17300033569336 4.427000045776367,-14.17300033569336 4.427000045776367,-14.17300033569336 C6.521999835968018,-14.17300033569336 8.220999717712402,-12.394000053405762 8.220999717712402,-10.199000358581543 C8.220999717712402,-10.199000358581543 8.220999717712402,10.199000358581543 8.220999717712402,10.199000358581543 C8.220999717712402,12.395000457763672 6.521999835968018,14.17300033569336 4.427000045776367,14.17300033569336 C4.427000045776367,14.17300033569336 -4.427000045776367,14.17300033569336 -4.427000045776367,14.17300033569336z"/></g><g opacity="1" transform="matrix(1,0,0,1,52.665000915527344,44.64099884033203)"><path stroke-linecap="round" stroke-linejoin="round" fill-opacity="0" stroke="rgb(0,0,0)" stroke-opacity="1" stroke-width="2" d=" M-3.619999885559082,3.742000102996826 C-3.9839999675750732,3.742000102996826 -4.2779998779296875,3.240999937057495 -4.2779998779296875,2.624000072479248 C-4.2779998779296875,2.624000072479248 -4.2779998779296875,-2.624000072479248 -4.2779998779296875,-2.624000072479248 C-4.2779998779296875,-3.240999937057495 -3.9839999675750732,-3.742000102996826 -3.619999885559082,-3.742000102996826 C-3.619999885559082,-3.742000102996826 3.619999885559082,-3.742000102996826 3.619999885559082,-3.742000102996826 C3.9839999675750732,-3.742000102996826 4.2779998779296875,-3.240999937057495 4.2779998779296875,-2.624000072479248 C4.2779998779296875,-2.624000072479248 4.2779998779296875,2.624000072479248 4.2779998779296875,2.624000072479248 C4.2779998779296875,3.240999937057495 3.9839999675750732,3.742000102996826 3.619999885559082,3.742000102996826 C3.619999885559082,3.742000102996826 -3.619999885559082,3.742000102996826 -3.619999885559082,3.742000102996826z"/></g><g opacity="1" transform="matrix(1,0,0,1,0,0)"><path stroke-linecap="round" stroke-linejoin="miter" fill-opacity="0" stroke-miterlimit="4" stroke="rgb(0,0,0)" stroke-opacity="1" stroke-width="2" d=" M44.61800003051758,53.02299880981445 C44.61800003051758,53.02299880981445 60.792999267578125,53.02299880981445 60.792999267578125,53.02299880981445"/></g><g opacity="1" transform="matrix(1,0,0,1,0,0)"><path stroke-linecap="round" stroke-linejoin="miter" fill-opacity="0" stroke-miterlimit="4" stroke="rgb(0,0,0)" stroke-opacity="1" stroke-width="2" d=" M48.30699920654297,34.71900177001953 C48.30699920654297,34.71900177001953 56.96200180053711,34.71900177001953 56.96200180053711,34.71900177001953"/></g><g opacity="1" transform="matrix(1,0,0,1,0,0)"><path stroke-linecap="round" stroke-linejoin="miter" fill-opacity="0" stroke-miterlimit="4" stroke="rgb(0,0,0)" stroke-opacity="1" stroke-width="2" d=" M48.30699920654297,37.27299880981445 C48.30699920654297,37.27299880981445 56.96200180053711,37.27299880981445 56.96200180053711,37.27299880981445"/></g><g opacity="1" transform="matrix(1,0,0,1,52.63399887084961,56.073001861572266)"><path fill="rgb(0,0,0)" fill-opacity="1" d=" M-0.0010000000474974513,-0.8510000109672546 C-0.47099998593330383,-0.8510000109672546 -0.8519999980926514,-0.4699999988079071 -0.8519999980926514,0.0010000000474974513 C-0.8519999980926514,0.4699999988079071 -0.47099998593330383,0.8510000109672546 -0.0010000000474974513,0.8510000109672546 C0.4690000116825104,0.8510000109672546 0.8519999980926514,0.4699999988079071 0.8519999980926514,0.0010000000474974513 C0.8519999980926514,-0.4699999988079071 0.4690000116825104,-0.8510000109672546 -0.0010000000474974513,-0.8510000109672546z"/></g></g><g transform="matrix(1,0,0,1,0,0)" opacity="1" style="display: block;"><g opacity="1" transform="matrix(1,0,0,1,76.0459976196289,44.862998962402344)"><path stroke-linecap="round" stroke-linejoin="round" fill-opacity="0" stroke="rgb(0,0,0)" stroke-opacity="1" stroke-width="2" d=" M-4.423999786376953,14.164999961853027 C-6.51800012588501,14.164999961853027 -8.21500015258789,12.387999534606934 -8.21500015258789,10.192999839782715 C-8.21500015258789,10.192999839782715 -8.21500015258789,-10.192999839782715 -8.21500015258789,-10.192999839782715 C-8.21500015258789,-12.38700008392334 -6.51800012588501,-14.164999961853027 -4.423999786376953,-14.164999961853027 C-4.423999786376953,-14.164999961853027 4.423999786376953,-14.164999961853027 4.423999786376953,-14.164999961853027 C6.517000198364258,-14.164999961853027 8.21500015258789,-12.38700008392334 8.21500015258789,-10.192999839782715 C8.21500015258789,-10.192999839782715 8.21500015258789,10.192999839782715 8.21500015258789,10.192999839782715 C8.21500015258789,12.387999534606934 6.517000198364258,14.164999961853027 4.423999786376953,14.164999961853027 C4.423999786376953,14.164999961853027 -4.423999786376953,14.164999961853027 -4.423999786376953,14.164999961853027z"/></g><g opacity="1" transform="matrix(1,0,0,1,76.02799987792969,37.415000915527344)"><path stroke-linecap="round" stroke-linejoin="round" fill-opacity="0" stroke="rgb(0,0,0)" stroke-opacity="1" stroke-width="2" d=" M-3.496999979019165,2.431999921798706 C-4.140999794006348,2.431999921798706 -4.6620001792907715,1.9880000352859497 -4.6620001792907715,1.4390000104904175 C-4.6620001792907715,1.4390000104904175 -4.6620001792907715,-1.4390000104904175 -4.6620001792907715,-1.4390000104904175 C-4.6620001792907715,-1.9869999885559082 -4.140999794006348,-2.431999921798706 -3.496999979019165,-2.431999921798706 C-3.496999979019165,-2.431999921798706 3.496000051498413,-2.431999921798706 3.496000051498413,-2.431999921798706 C4.139999866485596,-2.431999921798706 4.6620001792907715,-1.9869999885559082 4.6620001792907715,-1.4390000104904175 C4.6620001792907715,-1.4390000104904175 4.6620001792907715,1.4390000104904175 4.6620001792907715,1.4390000104904175 C4.6620001792907715,1.9880000352859497 4.139999866485596,2.431999921798706 3.496000051498413,2.431999921798706 C3.496000051498413,2.431999921798706 -3.496999979019165,2.431999921798706 -3.496999979019165,2.431999921798706z"/></g><g opacity="1" transform="matrix(1,0,0,1,76.0459976196289,45.21900177001953)"><path stroke-linecap="round" stroke-linejoin="round" fill-opacity="0" stroke="rgb(0,0,0)" stroke-opacity="1" stroke-width="2" d=" M-3.506999969482422,2.4690001010894775 C-4.1529998779296875,2.4690001010894775 -4.677999973297119,2.0179998874664307 -4.677999973297119,1.4609999656677246 C-4.677999973297119,1.4609999656677246 -4.677999973297119,-1.4620000123977661 -4.677999973297119,-1.4620000123977661 C-4.677999973297119,-2.0179998874664307 -4.1529998779296875,-2.4690001010894775 -3.506999969482422,-2.4690001010894775 C-3.506999969482422,-2.4690001010894775 3.509000062942505,-2.4690001010894775 3.509000062942505,-2.4690001010894775 C4.1539998054504395,-2.4690001010894775 4.677999973297119,-2.0179998874664307 4.677999973297119,-1.4620000123977661 C4.677999973297119,-1.4620000123977661 4.677999973297119,1.4609999656677246 4.677999973297119,1.4609999656677246 C4.677999973297119,2.0179998874664307 4.1539998054504395,2.4690001010894775 3.509000062942505,2.4690001010894775 C3.509000062942505,2.4690001010894775 -3.506999969482422,2.4690001010894775 -3.506999969482422,2.4690001010894775z"/></g><g opacity="1" transform="matrix(1,0,0,1,0,0)"><path stroke-linecap="round" stroke-linejoin="miter" fill-opacity="0" stroke-miterlimit="4" stroke="rgb(0,0,0)" stroke-opacity="1" stroke-width="2" d=" M68.02899932861328,53.02299880981445 C68.02899932861328,53.02299880981445 84.2040023803711,53.02299880981445 84.2040023803711,53.02299880981445"/></g><g opacity="1" transform="matrix(1,0,0,1,76.04499816894531,56.073001861572266)"><path fill="rgb(0,0,0)" fill-opacity="1" d=" M-0.0010000000474974513,-0.8510000109672546 C-0.47099998593330383,-0.8510000109672546 -0.8519999980926514,-0.4699999988079071 -0.8519999980926514,0.0010000000474974513 C-0.8519999980926514,0.4699999988079071 -0.47099998593330383,0.8510000109672546 -0.0010000000474974513,0.8510000109672546 C0.4690000116825104,0.8510000109672546 0.8519999980926514,0.4699999988079071 0.8519999980926514,0.0010000000474974513 C0.8519999980926514,-0.4699999988079071 0.4690000116825104,-0.8510000109672546 -0.0010000000474974513,-0.8510000109672546z"/></g></g></g></svg>