<svg xmlns="http://www.w3.org/2000/svg" viewBox="0 0 105 105" width="105" height="105" preserveAspectRatio="xMidYMid meet" style="width: 100%; height: 100%; transform: translate3d(0px, 0px, 0px);"><defs><clipPath id="__lottie_element_71"><rect width="105" height="105" x="0" y="0"/></clipPath></defs><g clip-path="url(#__lottie_element_71)"><g transform="matrix(1,0,0,1,0,0)" opacity="1" style="display: block;"><g opacity="1" transform="matrix(1,0,0,1,52.452999114990234,52.45199966430664)"><path fill="rgb(253,211,57)" fill-opacity="1" d=" M0.0010000000474974513,-52.45199966430664 C28.969999313354492,-52.45199966430664 52.45399856567383,-28.968000411987305 52.45399856567383,0.0010000000474974513 C52.45399856567383,28.969999313354492 28.969999313354492,52.45399856567383 0.0010000000474974513,52.45399856567383 C-28.968000411987305,52.45399856567383 -52.45199966430664,28.969999313354492 -52.45199966430664,0.0010000000474974513 C-52.45199966430664,-28.968000411987305 -28.968000411987305,-52.45199966430664 0.0010000000474974513,-52.45199966430664z"/></g></g><g transform="matrix(1,0,0,1,0,0)" opacity="1" style="display: block;"><g opacity="1" transform="matrix(1,0,0,1,0,0)"><path stroke-linecap="round" stroke-linejoin="miter" fill-opacity="0" stroke-miterlimit="4" stroke="rgb(0,0,0)" stroke-opacity="1" stroke-width="2" d=" M55.95100021362305,62.70800018310547 C55.95100021362305,62.70800018310547 71.46299743652344,62.70800018310547 74.69999694824219,62.70800018310547"/></g></g><g transform="matrix(1,0,0,1,0,0)" opacity="1" style="display: block;"><g opacity="1" transform="matrix(1,0,0,1,0,0)"><path stroke-linecap="round" stroke-linejoin="miter" fill-opacity="0" stroke-miterlimit="4" stroke="rgb(0,0,0)" stroke-opacity="1" stroke-width="2" d=" M56.7859992980957,58.53499984741211 C56.7859992980957,58.53499984741211 67.61100006103516,58.53499984741211 69.86900329589844,58.53499984741211"/></g></g><g transform="matrix(1,0,0,1,0,0)" opacity="1" style="display: block;"><g opacity="1" transform="matrix(1,0,0,1,0,0)"><path stroke-linecap="round" stroke-linejoin="miter" fill-opacity="0" stroke-miterlimit="4" stroke="rgb(0,0,0)" stroke-opacity="1" stroke-width="2" d=" M51.082000732421875,49.354000091552734 C51.082000732421875,49.354000091552734 66.94000244140625,49.354000091552734 66.94000244140625,49.354000091552734"/></g></g><g transform="matrix(1,0,0,1,0,0)" opacity="1" style="display: block;"><g opacity="1" transform="matrix(1,0,0,1,0,0)"><path stroke-linecap="round" stroke-linejoin="miter" fill-opacity="0" stroke-miterlimit="4" stroke="rgb(0,0,0)" stroke-opacity="1" stroke-width="2" d=" M51.082000732421875,44.48500061035156 C51.082000732421875,44.48500061035156 59.28900146484375,44.48500061035156 59.28900146484375,44.48500061035156"/></g></g><g transform="matrix(1,0,0,1,0,0)" opacity="1" style="display: block;"><g opacity="1" transform="matrix(1,0,0,1,0,0)"><path stroke-linecap="round" stroke-linejoin="miter" fill-opacity="0" stroke-miterlimit="4" stroke="rgb(0,0,0)" stroke-opacity="1" stroke-width="2" d=" M31.746999740600586,62.70800018310547 C31.746999740600586,62.70800018310547 48.57899856567383,62.70800018310547 48.57899856567383,62.70800018310547"/></g></g><g transform="matrix(1,0,0,1,0,0)" opacity="1" style="display: block;"><g opacity="1" transform="matrix(1,0,0,1,0,0)"><path stroke-linecap="round" stroke-linejoin="miter" fill-opacity="0" stroke-miterlimit="4" stroke="rgb(0,0,0)" stroke-opacity="1" stroke-width="2" d=" M31.746999740600586,58.53499984741211 C31.746999740600586,58.53499984741211 44.40599822998047,58.53499984741211 44.40599822998047,58.53499984741211"/></g></g><g style="display: block;" transform="matrix(1,0,0,1,-0.4519996643066406,-0.4519996643066406)" opacity="1"><g opacity="1" transform="matrix(1,0,0,1,40.301998138427734,29.809999465942383)"><path fill="rgb(0,0,0)" fill-opacity="1" d=" M0,-1.2519999742507935 C-0.6909999847412109,-1.2519999742507935 -1.2519999742507935,-0.6909999847412109 -1.2519999742507935,0 C-1.2519999742507935,0.6909999847412109 -0.6909999847412109,1.2519999742507935 0,1.2519999742507935 C0.6919999718666077,1.2519999742507935 1.2519999742507935,0.6909999847412109 1.2519999742507935,0 C1.2519999742507935,-0.6909999847412109 0.6919999718666077,-1.2519999742507935 0,-1.2519999742507935z"/></g></g><g style="display: block;" transform="matrix(1,0,0,1,-0.4519996643066406,-0.4519996643066406)" opacity="1"><g opacity="1" transform="matrix(1,0,0,1,35.849998474121094,29.809999465942383)"><path fill="rgb(0,0,0)" fill-opacity="1" d=" M0,-1.2519999742507935 C-0.6909999847412109,-1.2519999742507935 -1.2519999742507935,-0.6909999847412109 -1.2519999742507935,0 C-1.2519999742507935,0.6909999847412109 -0.6909999847412109,1.2519999742507935 0,1.2519999742507935 C0.6909999847412109,1.2519999742507935 1.2519999742507935,0.6909999847412109 1.2519999742507935,0 C1.2519999742507935,-0.6909999847412109 0.6909999847412109,-1.2519999742507935 0,-1.2519999742507935z"/></g></g><g style="display: block;" transform="matrix(1,0,0,1,-0.4519996643066406,-0.4519996643066406)" opacity="1"><g opacity="1" transform="matrix(1,0,0,1,31.39900016784668,29.809999465942383)"><path fill="rgb(0,0,0)" fill-opacity="1" d=" M0,-1.2519999742507935 C-0.6909999847412109,-1.2519999742507935 -1.2519999742507935,-0.6909999847412109 -1.2519999742507935,0 C-1.2519999742507935,0.6909999847412109 -0.6909999847412109,1.2519999742507935 0,1.2519999742507935 C0.6909999847412109,1.2519999742507935 1.2519999742507935,0.6909999847412109 1.2519999742507935,0 C1.2519999742507935,-0.6909999847412109 0.6909999847412109,-1.2519999742507935 0,-1.2519999742507935z"/></g></g><g style="display: block;" transform="matrix(1,0,0,1,-0.4519996643066406,0.5480003356933594)" opacity="1"><g opacity="1" transform="matrix(1,0,0,1,41.625,45.66899871826172)"><path fill="rgb(0,0,0)" fill-opacity="1" d=" M-2.2960000038146973,-3.2039999961853027 C-2.75600004196167,-3.2039999961853027 -3.13100004196167,-2.8299999237060547 -3.131999969482422,-2.369999885559082 C-3.131999969482422,-2.369999885559082 -3.131999969482422,2.368000030517578 -3.131999969482422,2.368000030517578 C-3.131999969482422,2.503999948501587 -3.0989999771118164,2.638000011444092 -3.0350000858306885,2.757999897003174 C-2.885999917984009,3.0420000553131104 -2.5950000286102295,3.2039999961853027 -2.2960000038146973,3.2039999961853027 C-2.1640000343322754,3.2039999961853027 -2.0299999713897705,3.171999931335449 -1.906000018119812,3.1070001125335693 C-1.906000018119812,3.1070001125335693 2.569999933242798,0.7360000014305115 2.569999933242798,0.7360000014305115 C2.7170000076293945,0.6579999923706055 2.8369998931884766,0.5379999876022339 2.9149999618530273,0.39100000262260437 C3.13100004196167,-0.01600000075995922 2.9769999980926514,-0.5230000019073486 2.569999933242798,-0.7390000224113464 C2.569999933242798,-0.7390000224113464 -1.906000018119812,-3.1070001125335693 -1.906000018119812,-3.1070001125335693 C-2.0250000953674316,-3.1700000762939453 -2.1589999198913574,-3.2039999961853027 -2.2939999103546143,-3.2039999961853027 C-2.2939999103546143,-3.2039999961853027 -2.2960000038146973,-3.2039999961853027 -2.2960000038146973,-3.2039999961853027z"/></g></g><g transform="matrix(1,0,0,1,0,0)" opacity="1" style="display: block;"><g opacity="1" transform="matrix(1,0,0,1,52.68199920654297,46.50299835205078)"><path stroke-linecap="round" stroke-linejoin="round" fill-opacity="0" stroke="rgb(0,0,0)" stroke-opacity="1" stroke-width="2" d=" M-20.195999145507812,7.742000102996826 C-20.93000030517578,7.742000102996826 -21.524999618530273,7.190999984741211 -21.524999618530273,6.51200008392334 C-21.524999618530273,6.51200008392334 -21.524999618530273,-6.51200008392334 -21.524999618530273,-6.51200008392334 C-21.524999618530273,-7.190999984741211 -20.93000030517578,-7.742000102996826 -20.195999145507812,-7.742000102996826 C-20.195999145507812,-7.742000102996826 20.195999145507812,-7.742000102996826 20.195999145507812,-7.742000102996826 C20.93000030517578,-7.742000102996826 21.524999618530273,-7.190999984741211 21.524999618530273,-6.51200008392334 C21.524999618530273,-6.51200008392334 21.524999618530273,6.51200008392334 21.524999618530273,6.51200008392334 C21.524999618530273,7.190999984741211 20.93000030517578,7.742000102996826 20.195999145507812,7.742000102996826 C20.195999145507812,7.742000102996826 -20.195999145507812,7.742000102996826 -20.195999145507812,7.742000102996826z"/></g></g><g transform="matrix(1,0,0,1,0,0)" opacity="1" style="display: block;"><g opacity="1" transform="matrix(1,0,0,1,0,0)"/><g opacity="1" transform="matrix(1,0,0,1,53.11600112915039,74.03199768066406)"><path stroke-linecap="round" stroke-linejoin="round" fill-opacity="0" stroke="rgb(0,0,0)" stroke-opacity="1" stroke-width="2" d=" M-8.875,5.64300012588501 C-8.875,5.64300012588501 8.196999549865723,5.64300012588501 8.196999549865723,5.64300012588501 C8.713000297546387,5.64300012588501 9.20300006866455,5.5269999504089355 9.616000175476074,5.306000232696533 C10.01099967956543,5.09499979019165 10.329000473022461,4.794000148773193 10.534000396728516,4.434999942779541 C10.930000305175781,3.746999979019165 10.878000259399414,2.927999973297119 10.395000457763672,2.188999891281128 C10.395000457763672,2.188999891281128 6.52400016784668,-4.349999904632568 6.52400016784668,-4.349999904632568 C6.52400016784668,-4.349999904632568 -7.202000141143799,-4.349999904632568 -7.202000141143799,-4.349999904632568 C-7.202000141143799,-4.349999904632568 -11.071999549865723,2.188999891281128 -11.071999549865723,2.188999891281128 C-11.555999755859375,2.927999973297119 -11.605999946594238,3.746999979019165 -11.211999893188477,4.434999942779541 C-11.005999565124512,4.794000148773193 -10.687999725341797,5.09499979019165 -10.293000221252441,5.306000232696533 C-9.880999565124512,5.5269999504089355 -9.390000343322754,5.64300012588501 -8.875,5.64300012588501z"/></g><g opacity="1" transform="matrix(1,0,0,1,0,0)"><path stroke-linecap="butt" stroke-linejoin="miter" fill-opacity="0" stroke-miterlimit="4" stroke="rgb(253,212,58)" stroke-opacity="1" stroke-width="10" d="M0 0"/></g><g opacity="1" transform="matrix(1,0,0,1,0,0)"><path stroke-linecap="butt" stroke-linejoin="miter" fill-opacity="0" stroke-miterlimit="4" stroke="rgb(253,212,58)" stroke-opacity="1" stroke-width="10" d="M0 0"/></g></g><g transform="matrix(1,0,0,1,0,-0.4519996643066406)" opacity="1" style="display: block;"><g opacity="1" transform="matrix(1,0,0,1,52.68199920654297,47.75400161743164)"><path stroke-linecap="round" stroke-linejoin="round" fill-opacity="0" stroke="rgb(0,0,0)" stroke-opacity="1" stroke-width="2" d=" M-25.01799964904785,21.540000915527344 C-27.246999740600586,21.540000915527344 -29.05500030517578,19.753999710083008 -29.05500030517578,17.551000595092773 C-29.05500030517578,17.551000595092773 -29.05500030517578,-17.551000595092773 -29.05500030517578,-17.551000595092773 C-29.05500030517578,-19.753999710083008 -27.246999740600586,-21.540000915527344 -25.01799964904785,-21.540000915527344 C-25.01799964904785,-21.540000915527344 25.020000457763672,-21.540000915527344 25.020000457763672,-21.540000915527344 C27.249000549316406,-21.540000915527344 29.05500030517578,-19.753999710083008 29.05500030517578,-17.551000595092773 C29.05500030517578,-17.551000595092773 29.05500030517578,17.551000595092773 29.05500030517578,17.551000595092773 C29.05500030517578,19.753999710083008 27.249000549316406,21.540000915527344 25.020000457763672,21.540000915527344 C25.020000457763672,21.540000915527344 -25.01799964904785,21.540000915527344 -25.01799964904785,21.540000915527344z"/></g></g></g></svg>